HIERARCHY
ROOT Hips
{
	OFFSET 0.000000 0.000000 0.000000
	CHANNELS 6 Xposition Yposition Zposition Xrotation Yrotation Zrotation
	JOINT LeftUpLeg_virtual
	{
		OFFSET 0.000000 0.000000 0.000000
		CHANNELS 3 Xrotation Yrotation Zrotation
		JOINT LeftUpLeg
		{
			OFFSET 10.205400 -3.823500 0.155100
			CHANNELS 3 Xrotation Yrotation Zrotation
			JOINT LeftLeg
			{
				OFFSET 0.708757 -12.982077 0.567790
				CHANNELS 3 Xrotation Yrotation Zrotation
				JOINT LeftFoot
				{
					OFFSET -0.708756 -10.717838 -2.184338
					CHANNELS 3 Xrotation Yrotation Zrotation
					JOINT LeftToeBase
					{
						OFFSET 0.108149 -7.191104 7.560241
						CHANNELS 3 Xrotation Yrotation Zrotation
						JOINT LeftToe_End
						{
							OFFSET 0.070230 0.081724 4.490308
							CHANNELS 3 Xrotation Yrotation Zrotation
							End Site
							{
								OFFSET 0 0 0
							}
						}
					}
				}
			}
		}
	}
	JOINT RightUpLeg_virtual
	{
		OFFSET 0.000000 0.000000 0.000000
		CHANNELS 3 Xrotation Yrotation Zrotation
		JOINT RightUpLeg
		{
			OFFSET -10.205400 -3.823500 0.005500
			CHANNELS 3 Xrotation Yrotation Zrotation
			JOINT RightLeg
			{
				OFFSET -0.708756 -12.982134 0.610632
				CHANNELS 3 Xrotation Yrotation Zrotation
				JOINT RightFoot
				{
					OFFSET 0.708754 -10.717769 -1.945823
					CHANNELS 3 Xrotation Yrotation Zrotation
					JOINT RightToeBase
					{
						OFFSET -0.108140 -7.191069 7.372968
						CHANNELS 3 Xrotation Yrotation Zrotation
						JOINT RightToe_End
						{
							OFFSET -0.070227 0.081735 4.479403
							CHANNELS 3 Xrotation Yrotation Zrotation
							End Site
							{
								OFFSET 0 0 0
							}
						}
					}
				}
			}
		}
	}
	JOINT Spine_virtual
	{
		OFFSET 0.000000 0.000000 0.000000
		CHANNELS 3 Xrotation Yrotation Zrotation
		JOINT Spine
		{
			OFFSET 0.000000 6.876099 0.125700
			CHANNELS 3 Xrotation Yrotation Zrotation
			JOINT Spine1
			{
				OFFSET 0.000000 5.730043 0.104720
				CHANNELS 3 Xrotation Yrotation Zrotation
				JOINT Spine1_split
				{
					OFFSET 0.000000 5.730043 0.104720
					CHANNELS 3 Xrotation Yrotation Zrotation
					JOINT Spine2
					{
						OFFSET 0.000000 5.730043 0.104720
						CHANNELS 3 Xrotation Yrotation Zrotation
						JOINT Neck_virtual
						{
							OFFSET 0.000000 0.000000 0.000000
							CHANNELS 3 Xrotation Yrotation Zrotation
							JOINT Neck
							{
								OFFSET 0.000000 10.314075 0.188496
								CHANNELS 3 Xrotation Yrotation Zrotation
								JOINT Head
								{
									OFFSET 0.000000 7.643700 -2.377400
									CHANNELS 3 Xrotation Yrotation Zrotation
									JOINT HeadTop_End
									{
										OFFSET 0.000000 43.788605 -13.619600
										CHANNELS 3 Xrotation Yrotation Zrotation
										End Site
										{
											OFFSET 0 0 0
										}
									}
								}
							}
						}
						JOINT LeftShoulder_virtual
						{
							OFFSET 0.000000 0.000000 0.000000
							CHANNELS 3 Xrotation Yrotation Zrotation
							JOINT LeftShoulder
							{
								OFFSET 2.196100 4.412489 0.087492
								CHANNELS 3 Xrotation Yrotation Zrotation
								JOINT LeftShoulder_split
								{
									OFFSET 2.196100 4.412489 0.087492
									CHANNELS 3 Xrotation Yrotation Zrotation
									JOINT LeftArm
									{
										OFFSET 8.771219 -2.981674 -0.026999
										CHANNELS 3 Xrotation Yrotation Zrotation
										JOINT LeftForeArm
										{
											OFFSET 8.512804 0.000000 -0.000000
											CHANNELS 3 Xrotation Yrotation Zrotation
											JOINT LeftHand
											{
												OFFSET 18.484802 0.000000 -0.000000
												CHANNELS 3 Xrotation Yrotation Zrotation
												End Site
												{
													OFFSET 0 0 0
												}
											}
										}
									}
								}
							}
						}
						JOINT RightShoulder_virtual
						{
							OFFSET 0.000000 0.000000 0.000000
							CHANNELS 3 Xrotation Yrotation Zrotation
							JOINT RightShoulder
							{
								OFFSET -2.196100 4.412496 0.070690
								CHANNELS 3 Xrotation Yrotation Zrotation
								JOINT RightShoulder_split
								{
									OFFSET -2.196100 4.412496 0.070690
									CHANNELS 3 Xrotation Yrotation Zrotation
									JOINT RightArm
									{
										OFFSET -8.771282 -2.981682 -0.094208
										CHANNELS 3 Xrotation Yrotation Zrotation
										JOINT RightForeArm
										{
											OFFSET -8.494598 0.000000 0.000000
											CHANNELS 3 Xrotation Yrotation Zrotation
											JOINT RightHand
											{
												OFFSET -18.483803 0.000000 0.000001
												CHANNELS 3 Xrotation Yrotation Zrotation
												End Site
												{
													OFFSET 0 0 0
												}
											}
										}
									}
								}
							}
						}
					}
				}
			}
		}
	}
}
MOTION
Frames: 7
Frame Time: 0.03333333
0.164612 27.617231 0.892981 0.000000 0.000000 0.000000 -5.094183 -52.042869 0.778427 -31.513041 7.584203 17.630202 61.598935 -4.906885 5.251497 -34.073413 -6.485012 -17.265470 -1.900187 0.079129 -0.333855 0.000000 0.000000 0.000000 -6.658652 -46.370506 1.189440 -16.038252 -12.303592 -34.651838 58.991961 -12.913007 -15.217363 -36.879367 -10.019474 23.767026 -0.353148 1.364048 0.774827 0.000000 0.000000 0.000000 -4.229290 -50.732343 1.737112 10.198368 6.715370 -1.832083 1.945412 1.127247 -0.738296 0.259880 -0.461540 0.791105 0.000000 0.000000 0.000000 2.657558 1.161690 -0.649672 -1.143344 13.541285 3.278173 8.840310 20.626850 -4.557952 0.000000 0.000000 0.000000 3.494238 0.986531 -0.828092 1.619100 2.874033 -12.019292 -2.851780 0.418914 0.016610 -52.209659 2.306406 -50.391517 -178.848053 -74.504824 -178.556103 0.000000 0.000000 0.000000 3.677928 1.305239 -0.517813 3.448873 11.537290 -5.978066 -2.427662 1.976060 0.684659 -49.504887 26.869030 87.535452 -173.348275 71.892563 171.044930 0.000000 0.000000 0.000000 
0.047551 27.760111 1.035736 0.000000 0.000000 0.000000 -4.830703 -51.818787 1.000639 -31.272591 7.918758 17.631152 60.666198 -5.218827 5.234295 -34.102759 -6.812679 -17.457035 -2.112353 0.099092 -0.113662 0.000000 0.000000 0.000000 -6.316850 -46.732113 1.445271 -16.186363 -12.794254 -35.127031 58.281226 -12.587577 -15.007322 -35.379314 -8.800381 22.390957 -0.450255 1.417203 1.496639 0.000000 0.000000 0.000000 -3.187509 -50.264376 2.497279 9.968528 6.874213 -1.904032 2.044434 1.208695 -0.823013 0.392483 -0.397782 0.712071 0.000000 0.000000 0.000000 2.669087 1.255522 -0.790960 -1.054170 13.466684 3.107030 9.069812 20.568935 -4.418978 0.000000 0.000000 0.000000 3.655754 1.030309 -0.878374 1.548061 2.344194 -11.417752 -3.023228 0.408559 -0.071518 -52.839238 2.846245 -50.197581 -179.352353 -75.294694 -178.913800 0.000000 0.000000 0.000000 3.794996 1.367581 -0.635610 3.522884 11.783919 -5.717561 -2.814113 2.763264 0.987410 -50.080477 27.373761 87.570675 -173.935781 72.182689 171.822370 0.000000 0.000000 0.000000 
-0.168558 28.065271 1.096071 0.000000 0.000000 0.000000 -4.230726 -50.871297 1.621645 -30.798003 8.214268 17.621880 59.003825 -5.646406 5.115854 -33.896180 -7.580920 -17.547091 -2.459732 0.097653 0.406951 0.000000 0.000000 0.000000 -5.673251 -46.792701 2.191581 -17.651340 -12.228499 -36.703179 58.418021 -11.314766 -14.492758 -30.873480 -6.266479 22.394155 -2.629400 1.466130 2.428233 0.000000 0.000000 0.000000 -1.899766 -49.072706 3.546351 9.793165 7.202098 -2.141627 2.099617 1.440665 -1.005023 0.384768 -0.439484 0.644617 0.000000 0.000000 0.000000 2.613996 1.451091 -1.011899 -0.793783 13.310032 2.659060 9.337988 19.999446 -4.001099 0.000000 0.000000 0.000000 3.621148 1.217245 -1.054658 1.470060 1.332322 -10.746119 -2.854292 0.105868 -0.425926 -54.930471 3.478785 -48.896190 -179.897702 -75.204112 -179.256115 0.000000 0.000000 0.000000 3.833291 1.524343 -0.869319 3.620664 12.278097 -5.487549 -2.781472 2.643539 1.137888 -51.806684 27.211921 87.546653 -174.309433 72.837629 172.473355 0.000000 0.000000 0.000000 
-0.458376 28.449331 1.113577 0.000000 0.000000 0.000000 -3.410077 -49.323774 2.437618 -30.191789 8.425271 17.659049 56.941979 -6.037489 4.906420 -33.581158 -8.633188 -17.471562 -2.783129 0.073106 1.028940 0.000000 0.000000 0.000000 -4.742786 -46.162793 3.209335 -19.689246 -10.779978 -38.732387 59.190877 -9.468617 -13.898524 -25.529666 -3.195553 22.888620 -5.296898 1.461895 3.203334 0.000000 0.000000 0.000000 -0.764690 -47.325947 4.545121 9.693020 7.554775 -2.466510 2.091503 1.715564 -1.186347 0.184836 -0.598214 0.697784 0.000000 0.000000 0.000000 2.540765 1.669432 -1.192124 -0.446024 13.137142 2.054621 9.586650 19.056979 -3.369875 0.000000 0.000000 0.000000 3.410571 1.461444 -1.238891 1.419426 -0.017763 -10.055165 -2.545972 -0.469627 -0.968536 -58.152675 4.131686 -46.550335 179.824852 -74.286346 -179.306276 0.000000 0.000000 0.000000 3.751543 1.706778 -1.098390 3.718188 12.927832 -5.405254 -2.615581 1.698249 1.162385 -54.763661 26.267811 87.529243 -174.432704 74.021984 172.856010 0.000000 0.000000 0.000000 
-0.781208 28.837662 1.117550 0.000000 0.000000 0.000000 -2.551382 -47.334533 3.212917 -29.674406 8.587418 17.815671 54.765662 -6.284602 4.741638 -33.435986 -9.775251 -17.236020 -2.974596 0.043886 1.495980 0.000000 0.000000 0.000000 -3.876530 -44.926133 4.053579 -21.821148 -9.009245 -40.435546 60.441874 -7.953711 -13.232405 -21.197282 -0.801072 22.649221 -6.114198 1.435430 3.484039 0.000000 0.000000 0.000000 0.144585 -45.346268 5.262635 9.633579 7.818501 -2.735874 2.022305 1.917157 -1.265224 0.027709 -0.678439 0.761919 0.000000 0.000000 0.000000 2.458751 1.815789 -1.219030 -0.127745 12.949105 1.495739 9.749498 17.988741 -2.606333 0.000000 0.000000 0.000000 3.093273 1.666939 -1.303051 1.416899 -1.572842 -9.435552 -2.371971 -0.974339 -1.475674 -62.164127 4.561534 -43.511126 179.699162 -72.871131 -179.249558 0.000000 0.000000 0.000000 3.555983 1.829292 -1.195246 3.813489 13.675554 -5.515754 -2.505467 0.641527 1.002665 -58.909227 24.564827 87.620488 -174.066346 75.823556 172.637143 0.000000 0.000000 0.000000 
-1.136073 29.156317 1.177763 0.000000 0.000000 0.000000 -1.843005 -45.167040 3.740679 -29.228650 8.746693 18.150640 52.867122 -6.507805 4.795351 -33.416291 -10.764425 -17.233735 -3.042117 0.032883 1.636483 0.000000 0.000000 0.000000 -3.431373 -43.154651 4.474171 -23.598457 -7.492919 -41.402131 61.834509 -7.294673 -12.469433 -18.807180 -0.135484 21.383661 -4.114300 1.396969 3.146686 0.000000 0.000000 0.000000 0.634018 -43.315345 5.546167 9.546408 7.903933 -2.856682 1.908830 1.945081 -1.195992 0.181377 -0.645478 0.847073 0.000000 0.000000 0.000000 2.390225 1.818898 -1.059540 0.083560 12.775569 1.176860 9.843687 17.035953 -1.819125 0.000000 0.000000 0.000000 2.750094 1.761335 -1.190193 1.455874 -3.277268 -8.980435 -2.222582 -1.348296 -1.861737 -66.251920 4.536746 -40.313405 179.640382 -71.491850 -179.195955 0.000000 0.000000 0.000000 3.312036 1.847632 -1.097729 3.906688 14.378631 -5.811170 -2.464735 0.029993 0.573189 -63.803215 22.350641 88.008449 -172.942767 78.237727 171.524997 0.000000 0.000000 0.000000 
-1.569188 29.362101 1.249342 0.000000 0.000000 0.000000 -1.443691 -43.160426 3.901272 -28.869072 8.897973 18.732591 51.435289 -6.686142 5.073368 -33.406080 -11.418434 -17.756328 -3.047260 0.059535 1.389414 0.000000 0.000000 0.000000 -3.429934 -41.074046 4.398164 -24.641318 -6.619804 -41.586683 62.823807 -7.583888 -11.623366 -18.464247 -1.376909 19.562558 -1.052389 1.263040 2.265925 0.000000 0.000000 0.000000 0.811279 -41.451400 5.434082 9.366131 7.869458 -2.763296 1.798132 1.803871 -1.005975 0.466724 -0.458472 0.914240 0.000000 0.000000 0.000000 2.338805 1.689225 -0.757513 0.157941 12.642727 1.185786 9.897965 16.361114 -1.069963 0.000000 0.000000 0.000000 2.488420 1.714125 -0.931413 1.548405 -4.920712 -8.781832 -1.993990 -1.561354 -1.989186 -69.601663 4.007865 -37.605044 179.408087 -70.650384 -179.453658 0.000000 0.000000 0.000000 3.056376 1.741534 -0.863270 3.989661 14.893166 -6.267780 -2.527834 -0.078019 0.140617 -68.644105 20.103070 88.620755 -170.493789 81.006672 169.009151 0.000000 0.000000 0.000000 
